<svg width="1871" height="1080" viewBox="0 0 1871 1080" fill="none" xmlns="http://www.w3.org/2000/svg">
<g clip-path="url(#clip0_2234_8802)">
<g opacity="0.2" clip-path="url(#clip1_2234_8802)">
<path d="M-18.9025 896C-97.4557 896 -161 959.544 -161 1038.1C-161 1116.46 -97.4557 1180.19 -18.9025 1180.19C59.4557 1180.19 123.195 1116.65 123.195 1038.1C123 959.544 59.4557 896 -18.9025 896ZM-18.9025 1171.03C-92.3878 1171.03 -151.839 1111.58 -151.839 1038.1C-151.839 964.612 -92.3878 905.161 -18.9025 905.161C54.5827 905.161 114.034 964.612 114.034 1038.1C114.034 1111.39 54.3878 1171.03 -18.9025 1171.03Z" fill="white"/>
<path d="M-18.9012 926.603C-80.3014 926.603 -130.201 976.502 -130.201 1037.9C-130.201 1099.3 -80.3014 1149.2 -18.9012 1149.2C42.4989 1149.2 92.3987 1099.5 92.3987 1038.1C92.3987 976.502 42.4989 926.603 -18.9012 926.603ZM-18.9012 1132.24C-70.9452 1132.24 -113.243 1089.95 -113.243 1037.9C-113.243 985.859 -70.9452 943.561 -18.9012 943.561C33.1427 943.561 75.4405 985.859 75.4405 1037.9C75.4405 1089.95 33.1427 1132.24 -18.9012 1132.24Z" fill="white"/>
<path d="M-18.902 975.527C-53.403 975.527 -81.4717 1003.6 -81.4717 1038.1C-81.4717 1072.6 -53.598 1100.67 -18.902 1100.67C15.599 1100.67 43.6677 1072.6 43.6677 1038.1C43.4727 1003.6 15.599 975.527 -18.902 975.527ZM-18.902 1071.62C-37.4195 1071.62 -52.4284 1056.61 -52.4284 1038.1C-52.4284 1019.58 -37.4195 1004.57 -18.902 1004.57C-0.384499 1004.57 14.6244 1019.58 14.6244 1038.1C14.6244 1056.61 -0.384499 1071.62 -18.902 1071.62Z" fill="white"/>
</g>
<g opacity="0.8" clip-path="url(#clip2_2234_8802)">
<path d="M1719.34 789.264C1719.34 790.784 1718.19 791.923 1716.67 791.923C1715.14 791.923 1714 790.784 1714 789.264C1714 787.745 1715.14 786.605 1716.67 786.605C1718.19 786.605 1719.34 787.872 1719.34 789.264Z" fill="white"/>
<path d="M1742.08 789.264C1742.08 790.784 1740.93 791.923 1739.41 791.923C1737.88 791.923 1736.74 790.784 1736.74 789.264C1736.74 787.745 1737.88 786.605 1739.41 786.605C1740.8 786.605 1742.08 787.872 1742.08 789.264Z" fill="white"/>
<path d="M1764.69 789.264C1764.69 790.784 1763.54 791.923 1762.02 791.923C1760.5 791.923 1759.35 790.784 1759.35 789.264C1759.35 787.745 1760.5 786.605 1762.02 786.605C1763.54 786.605 1764.69 787.872 1764.69 789.264Z" fill="white"/>
<path d="M1787.43 789.264C1787.43 790.784 1786.28 791.923 1784.76 791.923C1783.24 791.923 1782.09 790.784 1782.09 789.264C1782.09 787.745 1783.24 786.605 1784.76 786.605C1786.28 786.605 1787.43 787.872 1787.43 789.264Z" fill="white"/>
<path d="M1810.17 789.264C1810.17 790.784 1809.02 791.923 1807.5 791.923C1805.98 791.923 1804.83 790.784 1804.83 789.264C1804.83 787.745 1805.98 786.605 1807.5 786.605C1808.9 786.605 1810.17 787.872 1810.17 789.264Z" fill="white"/>
<path d="M1832.91 789.264C1832.91 790.784 1831.76 791.923 1830.24 791.923C1828.72 791.923 1827.57 790.784 1827.57 789.264C1827.57 787.745 1828.72 786.605 1830.24 786.605C1831.76 786.605 1832.91 787.872 1832.91 789.264Z" fill="white"/>
<path d="M1855.52 789.264C1855.52 790.784 1854.38 791.923 1852.85 791.923C1851.33 791.923 1850.18 790.784 1850.18 789.264C1850.18 787.745 1851.33 786.605 1852.85 786.605C1854.38 786.605 1855.52 787.872 1855.52 789.264Z" fill="white"/>
<path d="M1719.34 808.131C1719.34 809.65 1718.19 810.79 1716.67 810.79C1715.14 810.79 1714 809.65 1714 808.131C1714 806.611 1715.14 805.472 1716.67 805.472C1718.19 805.472 1719.34 806.611 1719.34 808.131Z" fill="white"/>
<path d="M1742.08 808.131C1742.08 809.65 1740.93 810.79 1739.41 810.79C1737.88 810.79 1736.74 809.65 1736.74 808.131C1736.74 806.611 1737.88 805.472 1739.41 805.472C1740.8 805.472 1742.08 806.611 1742.08 808.131Z" fill="white"/>
<path d="M1764.69 808.131C1764.69 809.65 1763.54 810.79 1762.02 810.79C1760.5 810.79 1759.35 809.65 1759.35 808.131C1759.35 806.611 1760.5 805.472 1762.02 805.472C1763.54 805.472 1764.69 806.611 1764.69 808.131Z" fill="white"/>
<path d="M1787.43 808.131C1787.43 809.65 1786.28 810.79 1784.76 810.79C1783.24 810.79 1782.09 809.65 1782.09 808.131C1782.09 806.611 1783.24 805.472 1784.76 805.472C1786.28 805.472 1787.43 806.611 1787.43 808.131Z" fill="white"/>
<path d="M1810.17 808.131C1810.17 809.65 1809.02 810.79 1807.5 810.79C1805.98 810.79 1804.83 809.65 1804.83 808.131C1804.83 806.611 1805.98 805.472 1807.5 805.472C1808.9 805.472 1810.17 806.611 1810.17 808.131Z" fill="white"/>
<path d="M1832.91 808.131C1832.91 809.65 1831.76 810.79 1830.24 810.79C1828.72 810.79 1827.57 809.65 1827.57 808.131C1827.57 806.611 1828.72 805.472 1830.24 805.472C1831.76 805.472 1832.91 806.611 1832.91 808.131Z" fill="white"/>
<path d="M1855.52 808.131C1855.52 809.65 1854.38 810.79 1852.85 810.79C1851.33 810.79 1850.18 809.65 1850.18 808.131C1850.18 806.611 1851.33 805.472 1852.85 805.472C1854.38 805.472 1855.52 806.611 1855.52 808.131Z" fill="white"/>
<path d="M1719.34 751.659C1719.34 753.178 1718.19 754.318 1716.67 754.318C1715.14 754.318 1714 753.178 1714 751.659C1714 750.14 1715.14 749 1716.67 749C1718.19 749 1719.34 750.14 1719.34 751.659Z" fill="white"/>
<path d="M1742.08 751.659C1742.08 753.178 1740.93 754.318 1739.41 754.318C1737.88 754.318 1736.74 753.178 1736.74 751.659C1736.74 750.14 1737.88 749 1739.41 749C1740.8 749 1742.08 750.14 1742.08 751.659Z" fill="white"/>
<path d="M1764.69 751.659C1764.69 753.178 1763.54 754.318 1762.02 754.318C1760.5 754.318 1759.35 753.178 1759.35 751.659C1759.35 750.14 1760.62 749 1762.02 749C1763.54 749 1764.69 750.14 1764.69 751.659Z" fill="white"/>
<path d="M1787.43 751.659C1787.43 753.178 1786.28 754.318 1784.76 754.318C1783.24 754.318 1782.09 753.178 1782.09 751.659C1782.09 750.14 1783.36 749 1784.76 749C1786.16 749 1787.43 750.14 1787.43 751.659Z" fill="white"/>
<path d="M1810.17 751.659C1810.17 753.178 1809.02 754.318 1807.5 754.318C1805.98 754.318 1804.83 753.178 1804.83 751.659C1804.83 750.14 1805.98 749 1807.5 749C1808.9 749 1810.17 750.14 1810.17 751.659Z" fill="white"/>
<path d="M1832.91 751.659C1832.91 753.178 1831.76 754.318 1830.24 754.318C1828.72 754.318 1827.57 753.178 1827.57 751.659C1827.57 750.14 1828.72 749 1830.24 749C1831.76 749 1832.91 750.14 1832.91 751.659Z" fill="white"/>
<path d="M1855.52 751.659C1855.52 753.178 1854.38 754.318 1852.85 754.318C1851.33 754.318 1850.18 753.178 1850.18 751.659C1850.18 750.14 1851.33 749 1852.85 749C1854.38 749 1855.52 750.14 1855.52 751.659Z" fill="white"/>
<path d="M1719.34 770.525C1719.34 772.045 1718.19 773.184 1716.67 773.184C1715.14 773.184 1714 771.918 1714 770.525C1714 769.006 1715.14 767.866 1716.67 767.866C1718.19 767.866 1719.34 769.006 1719.34 770.525Z" fill="white"/>
<path d="M1742.08 770.525C1742.08 772.045 1740.93 773.184 1739.41 773.184C1737.88 773.184 1736.74 772.045 1736.74 770.525C1736.74 769.006 1737.88 767.866 1739.41 767.866C1740.8 767.866 1742.08 769.006 1742.08 770.525Z" fill="white"/>
<path d="M1764.69 770.525C1764.69 772.045 1763.54 773.184 1762.02 773.184C1760.5 773.184 1759.35 772.045 1759.35 770.525C1759.35 769.006 1760.5 767.866 1762.02 767.866C1763.54 767.866 1764.69 769.006 1764.69 770.525Z" fill="white"/>
<path d="M1787.43 770.525C1787.43 772.045 1786.28 773.184 1784.76 773.184C1783.24 773.184 1782.09 772.045 1782.09 770.525C1782.09 769.006 1783.24 767.866 1784.76 767.866C1786.28 767.866 1787.43 769.006 1787.43 770.525Z" fill="white"/>
<path d="M1810.17 770.525C1810.17 772.045 1809.02 773.184 1807.5 773.184C1805.98 773.184 1804.83 772.045 1804.83 770.525C1804.83 769.006 1805.98 767.866 1807.5 767.866C1808.9 767.866 1810.17 769.006 1810.17 770.525Z" fill="white"/>
<path d="M1832.91 770.525C1832.91 772.045 1831.76 773.184 1830.24 773.184C1828.72 773.184 1827.57 772.045 1827.57 770.525C1827.57 769.006 1828.72 767.866 1830.24 767.866C1831.76 767.866 1832.91 769.006 1832.91 770.525Z" fill="white"/>
<path d="M1855.52 770.525C1855.52 772.045 1854.38 773.184 1852.85 773.184C1851.33 773.184 1850.18 772.045 1850.18 770.525C1850.18 769.006 1851.33 767.866 1852.85 767.866C1854.38 767.866 1855.52 769.006 1855.52 770.525Z" fill="white"/>
<path d="M1719.34 826.87C1719.34 828.389 1718.19 829.529 1716.67 829.529C1715.14 829.529 1714 828.389 1714 826.87C1714 825.35 1715.14 824.211 1716.67 824.211C1718.19 824.211 1719.34 825.477 1719.34 826.87Z" fill="white"/>
<path d="M1742.08 826.87C1742.08 828.389 1740.93 829.529 1739.41 829.529C1737.88 829.529 1736.74 828.389 1736.74 826.87C1736.74 825.35 1737.88 824.211 1739.41 824.211C1740.8 824.211 1742.08 825.477 1742.08 826.87Z" fill="white"/>
<path d="M1764.69 826.87C1764.69 828.389 1763.54 829.529 1762.02 829.529C1760.5 829.529 1759.35 828.389 1759.35 826.87C1759.35 825.35 1760.5 824.211 1762.02 824.211C1763.54 824.211 1764.69 825.477 1764.69 826.87Z" fill="white"/>
<path d="M1787.43 826.87C1787.43 828.389 1786.28 829.529 1784.76 829.529C1783.24 829.529 1782.09 828.389 1782.09 826.87C1782.09 825.35 1783.24 824.211 1784.76 824.211C1786.28 824.211 1787.43 825.477 1787.43 826.87Z" fill="white"/>
<path d="M1810.17 826.87C1810.17 828.389 1809.02 829.529 1807.5 829.529C1805.98 829.529 1804.83 828.389 1804.83 826.87C1804.83 825.35 1805.98 824.211 1807.5 824.211C1808.9 824.211 1810.17 825.477 1810.17 826.87Z" fill="white"/>
<path d="M1832.91 826.87C1832.91 828.389 1831.76 829.529 1830.24 829.529C1828.72 829.529 1827.57 828.389 1827.57 826.87C1827.57 825.35 1828.72 824.211 1830.24 824.211C1831.76 824.211 1832.91 825.477 1832.91 826.87Z" fill="white"/>
<path d="M1855.52 826.87C1855.52 828.389 1854.38 829.529 1852.85 829.529C1851.33 829.529 1850.18 828.389 1850.18 826.87C1850.18 825.35 1851.33 824.211 1852.85 824.211C1854.38 824.211 1855.52 825.477 1855.52 826.87Z" fill="white"/>
<path d="M1719.34 845.736C1719.34 847.256 1718.19 848.395 1716.67 848.395C1715.14 848.395 1714 847.256 1714 845.736C1714 844.217 1715.14 843.077 1716.67 843.077C1718.19 843.077 1719.34 844.217 1719.34 845.736Z" fill="white"/>
<path d="M1742.08 845.736C1742.08 847.256 1740.93 848.395 1739.41 848.395C1737.88 848.395 1736.74 847.256 1736.74 845.736C1736.74 844.217 1737.88 843.077 1739.41 843.077C1740.8 843.077 1742.08 844.217 1742.08 845.736Z" fill="white"/>
<path d="M1764.69 845.736C1764.69 847.256 1763.54 848.395 1762.02 848.395C1760.5 848.395 1759.35 847.256 1759.35 845.736C1759.35 844.217 1760.5 843.077 1762.02 843.077C1763.54 843.077 1764.69 844.217 1764.69 845.736Z" fill="white"/>
<path d="M1784.76 848.395C1786.23 848.395 1787.43 847.205 1787.43 845.736C1787.43 844.268 1786.23 843.077 1784.76 843.077C1783.29 843.077 1782.09 844.268 1782.09 845.736C1782.09 847.205 1783.29 848.395 1784.76 848.395Z" fill="white"/>
<path d="M1810.17 845.736C1810.17 847.256 1809.02 848.395 1807.5 848.395C1805.98 848.395 1804.83 847.256 1804.83 845.736C1804.83 844.217 1805.98 843.077 1807.5 843.077C1808.9 843.077 1810.17 844.217 1810.17 845.736Z" fill="white"/>
<path d="M1832.91 845.736C1832.91 847.256 1831.76 848.395 1830.24 848.395C1828.72 848.395 1827.57 847.256 1827.57 845.736C1827.57 844.217 1828.72 843.077 1830.24 843.077C1831.76 843.077 1832.91 844.217 1832.91 845.736Z" fill="white"/>
<path d="M1855.52 845.736C1855.52 847.256 1854.38 848.395 1852.85 848.395C1851.33 848.395 1850.18 847.256 1850.18 845.736C1850.18 844.217 1851.33 843.077 1852.85 843.077C1854.38 843.077 1855.52 844.217 1855.52 845.736Z" fill="white"/>
<path d="M1719.34 864.601C1719.34 866.121 1718.19 867.26 1716.67 867.26C1715.14 867.26 1714 866.121 1714 864.601C1714 863.082 1715.14 861.942 1716.67 861.942C1718.19 861.942 1719.34 863.082 1719.34 864.601Z" fill="white"/>
<path d="M1742.08 864.601C1742.08 866.121 1740.93 867.26 1739.41 867.26C1737.88 867.26 1736.74 866.121 1736.74 864.601C1736.74 863.082 1737.88 861.942 1739.41 861.942C1740.8 861.942 1742.08 863.082 1742.08 864.601Z" fill="white"/>
<path d="M1764.69 864.601C1764.69 866.121 1763.54 867.26 1762.02 867.26C1760.5 867.26 1759.35 866.121 1759.35 864.601C1759.35 863.082 1760.5 861.942 1762.02 861.942C1763.54 861.942 1764.69 863.082 1764.69 864.601Z" fill="white"/>
<path d="M1787.43 864.601C1787.43 866.121 1786.28 867.26 1784.76 867.26C1783.24 867.26 1782.09 866.121 1782.09 864.601C1782.09 863.082 1783.24 861.942 1784.76 861.942C1786.28 861.942 1787.43 863.082 1787.43 864.601Z" fill="white"/>
<path d="M1810.17 864.601C1810.17 866.121 1809.02 867.26 1807.5 867.26C1805.98 867.26 1804.83 866.121 1804.83 864.601C1804.83 863.082 1805.98 861.942 1807.5 861.942C1808.9 861.942 1810.17 863.082 1810.17 864.601Z" fill="white"/>
<path d="M1832.91 864.601C1832.91 866.121 1831.76 867.26 1830.24 867.26C1828.72 867.26 1827.57 866.121 1827.57 864.601C1827.57 863.082 1828.72 861.942 1830.24 861.942C1831.76 861.942 1832.91 863.082 1832.91 864.601Z" fill="white"/>
<path d="M1855.52 864.601C1855.52 866.121 1854.38 867.26 1852.85 867.26C1851.33 867.26 1850.18 866.121 1850.18 864.601C1850.18 863.082 1851.33 861.942 1852.85 861.942C1854.38 861.942 1855.52 863.082 1855.52 864.601Z" fill="white"/>
<path d="M1719.34 883.341C1719.34 884.86 1718.19 886 1716.67 886C1715.14 886 1714 884.86 1714 883.341C1714 881.821 1715.14 880.682 1716.67 880.682C1718.19 880.682 1719.34 881.948 1719.34 883.341Z" fill="white"/>
<path d="M1742.08 883.341C1742.08 884.86 1740.93 886 1739.41 886C1737.88 886 1736.74 884.86 1736.74 883.341C1736.74 881.821 1737.88 880.682 1739.41 880.682C1740.8 880.682 1742.08 881.948 1742.08 883.341Z" fill="white"/>
<path d="M1764.69 883.341C1764.69 884.86 1763.54 886 1762.02 886C1760.5 886 1759.35 884.86 1759.35 883.341C1759.35 881.821 1760.5 880.682 1762.02 880.682C1763.54 880.682 1764.69 881.948 1764.69 883.341Z" fill="white"/>
<path d="M1787.43 883.341C1787.43 884.86 1786.28 886 1784.76 886C1783.24 886 1782.09 884.86 1782.09 883.341C1782.09 881.821 1783.24 880.682 1784.76 880.682C1786.28 880.682 1787.43 881.948 1787.43 883.341Z" fill="white"/>
<path d="M1810.17 883.341C1810.17 884.86 1809.02 886 1807.5 886C1805.98 886 1804.83 884.86 1804.83 883.341C1804.83 881.821 1805.98 880.682 1807.5 880.682C1808.9 880.682 1810.17 881.948 1810.17 883.341Z" fill="white"/>
<path d="M1832.91 883.341C1832.91 884.86 1831.76 886 1830.24 886C1828.72 886 1827.57 884.86 1827.57 883.341C1827.57 881.821 1828.72 880.682 1830.24 880.682C1831.76 880.682 1832.91 881.948 1832.91 883.341Z" fill="white"/>
<path d="M1855.52 883.341C1855.52 884.86 1854.38 886 1852.85 886C1851.33 886 1850.18 884.86 1850.18 883.341C1850.18 881.821 1851.33 880.682 1852.85 880.682C1854.38 880.682 1855.52 881.948 1855.52 883.341Z" fill="white"/>
</g>
<g opacity="0.3">
<path d="M1712.81 75.2212L1722.47 84.8799L1696.78 110.563L1671.1 84.8799L1680.68 75.2943L1696.71 91.319L1712.81 75.2212Z" fill="white"/>
<path d="M1712.81 40.5386L1722.39 50.1241L1696.71 75.8075L1671.1 50.1973L1680.76 40.5386L1696.78 56.5632L1712.81 40.5386Z" fill="white"/>
<path d="M1712.73 5.78165L1722.39 15.4404L1696.78 41.0506L1671.1 15.3672L1680.68 5.78165L1696.71 21.8063L1712.73 5.78165Z" fill="white"/>
<path d="M1712.81 -28.9761L1722.46 -19.3174L1696.78 6.36601L1671.1 -19.3174L1680.76 -28.9761L1696.78 -12.9514L1712.81 -28.9761Z" fill="white"/>
</g>
<path opacity="0.3" d="M745 808.553C731.071 822.482 708.377 822.482 694.447 808.553C680.518 794.623 680.518 771.929 694.447 758L745 808.553Z" fill="white"/>
<g opacity="0.3">
<path d="M799.486 529.89C810.205 529.89 818.937 521.165 818.937 510.453C818.937 499.742 810.205 491.017 799.486 491.017L799.486 529.89Z" fill="white"/>
<path d="M769.141 529.89C779.861 529.89 788.592 521.165 788.592 510.453C788.592 499.742 779.861 491.017 769.141 491.017L769.141 529.89Z" fill="white"/>
<path d="M738.796 529.89C749.515 529.89 758.247 521.165 758.247 510.453C758.247 499.742 749.515 491.017 738.796 491.017V529.89Z" fill="white"/>
</g>
<g opacity="0.3">
<path d="M97.3007 144.921L97.3007 133L129 133L129 164.699L117.169 164.699L117.169 144.921L97.3007 144.921Z" fill="white"/>
<path d="M75.8984 166.325L75.8984 154.494L107.597 154.494L107.597 186.103L95.6763 186.103L95.6763 166.325L75.8984 166.325Z" fill="white"/>
<path d="M54.4946 187.819L54.4946 175.898L86.103 175.898L86.103 207.597L74.2724 207.597L74.2724 187.819L54.4946 187.819Z" fill="white"/>
<path d="M33.0005 209.222L33.0004 197.301L64.6992 197.301L64.6992 229L52.7783 229L52.7783 209.222L33.0005 209.222Z" fill="white"/>
</g>
</g>
<defs>
<clipPath id="clip0_2234_8802">
<rect width="1920" height="1080" fill="white" transform="translate(-49)"/>
</clipPath>
<clipPath id="clip1_2234_8802">
<rect width="284" height="284" fill="white" transform="translate(-161 896)"/>
</clipPath>
<clipPath id="clip2_2234_8802">
<rect width="187" height="137" fill="white" transform="translate(1714 749)"/>
</clipPath>
</defs>
</svg>
